<svg width="50" height="50" viewBox="0 0 50 50" fill="none" xmlns="http://www.w3.org/2000/svg">
<g id="linkedin">
<path id="Vector" d="M45.3125 1.15594H4.6875C3.76575 1.14669 2.87792 1.49847 2.21882 2.13408C1.55973 2.7697 1.18321 3.63725 1.17188 4.54635V44.7767C1.18526 45.6844 1.56268 46.55 2.22155 47.184C2.88042 47.8179 3.76708 48.1686 4.6875 48.1594H45.3125C46.2343 48.1666 47.1215 47.8136 47.7803 47.1776C48.439 46.5416 48.8158 45.6742 48.8281 44.7651V4.53479C48.8117 3.62835 48.4332 2.76495 47.7749 2.13225C47.1165 1.49954 46.2316 1.14869 45.3125 1.15594Z" fill="#0076B2"/>
<path id="Vector_2" d="M8.22656 18.7745H15.3008V41.2244H8.22656V18.7745ZM11.7656 7.60156C12.577 7.60156 13.3702 7.83892 14.0447 8.2836C14.7193 8.72828 15.245 9.36031 15.5553 10.0997C15.8657 10.8392 15.9467 11.6527 15.7881 12.4376C15.6295 13.2224 15.2385 13.9432 14.6645 14.5088C14.0905 15.0744 13.3593 15.4594 12.5634 15.6151C11.7675 15.7707 10.9427 15.69 10.1933 15.3833C9.44392 15.0765 8.80362 14.5574 8.3534 13.8916C7.90319 13.2259 7.66329 12.4434 7.66406 11.6431C7.6651 10.5709 8.09768 9.54289 8.86676 8.78506C9.63584 8.02724 10.6785 7.60156 11.7656 7.60156ZM19.7383 18.7745H26.5195V21.8567H26.6133C27.5586 20.0921 29.8633 18.2313 33.3047 18.2313C40.4688 18.2159 41.7969 22.8661 41.7969 28.8957V41.2244H34.7227V30.3019C34.7227 27.7013 34.6758 24.3533 31.0469 24.3533C27.418 24.3533 26.8008 27.1889 26.8008 30.1324V41.2244H19.7383V18.7745Z" fill="white"/>
</g>
</svg>
