<svg width="46" height="36" viewBox="0 0 46 36" fill="none" xmlns="http://www.w3.org/2000/svg">
<g id="logos:youtube-icon" clip-path="url(#clip0_107_1709)">
<path id="Vector" d="M44.9841 5.615C44.7202 4.52971 44.2056 3.54029 43.4913 2.74526C42.777 1.95022 41.8881 1.37732 40.9131 1.0836C37.3434 0 22.9767 0 22.9767 0C22.9767 0 8.60922 0.0327999 5.03955 1.1164C4.06448 1.41014 3.17555 1.98307 2.46129 2.77814C1.74704 3.57321 1.23237 4.56267 0.96855 5.648C-0.111192 12.7076 -0.530044 23.4648 0.998198 30.242C1.26205 31.3273 1.77672 32.3167 2.49098 33.1117C3.20523 33.9068 4.09415 34.4797 5.0692 34.7734C8.63887 35.857 23.006 35.857 23.006 35.857C23.006 35.857 37.3729 35.857 40.9424 34.7734C41.9175 34.4797 42.8064 33.9068 43.5207 33.1118C44.235 32.3168 44.7497 31.3273 45.0135 30.242C46.1524 23.1724 46.5033 12.4218 44.9841 5.615Z" fill="#FF0000"/>
<path id="Vector_2" d="M18.4037 25.6121L30.3221 17.9285L18.4037 10.2449V25.6121Z" fill="white"/>
</g>
<defs>
<clipPath id="clip0_107_1709">
<rect width="46" height="36" fill="white"/>
</clipPath>
</defs>
</svg>
