<svg width="50" height="50" viewBox="0 0 50 50" fill="none" xmlns="http://www.w3.org/2000/svg">
<g id="map" clip-path="url(#clip0_33_1645)">
<path id="Vector" d="M16.6667 10.5655L4.16667 7.21684C1.86528 6.60017 0 7.96545 0 10.2682V38.046C0 40.346 1.86528 42.7113 4.16667 43.3293L16.6667 46.678V10.5655ZM33.3333 42.2127L45.8333 45.5613C48.1333 46.1766 50 44.8113 50 42.5113V14.7335C50 12.4321 48.1333 10.0668 45.8333 9.45017L33.3333 6.10156V42.2127Z" fill="#CCD6DD"/>
<path id="Vector_2" d="M33.3333 42.2112L16.6666 46.6765V10.5654L33.3333 6.1001V42.2112Z" fill="#E1E8ED"/>
<path id="Vector_3" d="M16.6667 13.3431L5.55561 10.3654C4.02228 9.95424 2.77783 10.8654 2.77783 12.3987V37.3987C2.77783 38.932 4.02228 40.5098 5.55561 40.9195L16.6667 43.8987V13.3431ZM44.4445 11.8542L33.3334 8.87646V39.432L44.4445 42.4098C45.9778 42.8209 47.2223 41.9112 47.2223 40.3751V15.3751C47.2223 13.8431 45.9778 12.2654 44.4445 11.8542Z" fill="#55ACEE"/>
<path id="Vector_4" d="M33.3333 39.4335L16.6666 43.8988V13.3432L33.3333 8.87793V39.4335Z" fill="#88C9F9"/>
<path id="Vector_5" d="M16.6667 29.8697C16.2945 29.878 15.8403 30.0141 15.4931 30.071C14.8875 30.1724 15.0361 30.7891 14.85 30.6863C14.4209 30.454 14.0385 30.1441 13.7222 29.7724C13.2542 29.2252 14.0695 29.1099 14.3028 28.9085C14.5361 28.7072 13.8639 28.6697 13.6292 28.4474C13.3945 28.2266 12.975 28.5919 12.6028 28.0641C12.2278 27.5419 12.4625 26.9669 12.4181 26.4252C12.3709 25.8835 13.0236 25.9516 13.4445 25.9613C13.8653 25.9655 14.1917 26.1613 14.1917 26.7974C14.1917 27.4308 14.7056 27.7808 14.5653 27.0002C14.425 26.221 14.7056 26.0877 14.8917 25.7641C15.0778 25.4447 15.4056 25.0002 15.825 24.3197C16.132 23.8224 16.3653 23.9266 16.6667 24.0919V19.446C16.5903 19.3849 16.5139 19.321 16.4375 19.2891C16.0167 19.1058 16.5709 20.3349 16.2445 20.8294C15.9153 21.3238 15.4139 21.0974 14.8972 20.9599C14.3847 20.8224 13.907 20.203 14.282 19.5613C14.6542 18.9197 15.3681 19.1891 15.7417 18.6544C16.1153 18.1197 14.4125 17.721 13.8056 17.3474C13.1972 16.971 12.4681 16.7794 11.8611 17.1447C11.2542 17.5113 9.95418 17.3294 9.44029 17.403C8.92641 17.478 8.83474 16.8905 8.74168 16.4405C8.64863 15.9933 7.83474 15.9835 6.99585 15.971C6.15418 15.9572 4.57779 16.3613 4.84724 18.4141C4.94168 19.128 5.68752 18.5863 5.82918 18.4641C5.96946 18.3419 6.66946 18.7419 6.76113 19.3488C6.85557 19.9585 6.80974 20.5808 6.62363 21.0599C6.43335 21.5391 7.09029 22.4572 7.46252 23.2988C7.83613 24.1391 8.25835 24.2516 8.44446 24.303C8.63196 24.353 9.70557 25.1183 9.65974 25.6863C9.61391 26.2572 10.6403 27.0627 11.0611 27.5474C11.482 28.0335 11.7472 28.4669 12.2931 28.7224C12.8389 28.9766 13.4764 30.1599 13.757 30.3405C13.9722 30.4794 14.3375 30.9669 14.557 31.146C14.2681 31.4822 13.707 32.1849 13.707 32.5752C13.707 33.1072 14.3181 34.1072 14.5514 34.3808C14.7833 34.653 15.4542 34.9947 15.5945 35.5613C15.7347 36.1266 15.4972 37.8474 15.0778 38.2099C14.6556 38.5738 14.5028 39.6585 14.5028 39.6585C14.5028 39.6585 14.6514 40.0655 15.1486 39.8308C15.5778 39.6308 16.2264 39.0447 16.6681 38.7183V29.8697H16.6667Z" fill="#5C913B"/>
<path id="Vector_6" d="M17.0388 24.1847C16.9 24.2069 16.7791 24.2013 16.6666 24.1999V19.5541C17.0194 19.6444 17.3777 19.9944 17.6486 20.5763C17.9736 21.2833 18.4875 20.668 18.675 21.0958C18.8611 21.5235 19.8902 22.1485 19.3763 22.1263C18.8611 22.1055 18.3472 22.1374 18.2083 22.7569C18.0666 23.3791 18.4416 23.8597 18.0666 23.9069C17.6916 23.9527 17.5527 24.1041 17.0388 24.1847ZM20.6361 31.9041C20.0305 31.8013 20.1375 31.8722 19.7638 31.0722C19.3916 30.2708 19.1652 30.0402 18.325 30.161C17.4847 30.2819 17.5152 30.3499 17.2819 29.9347C17.1819 29.7569 16.9472 29.8208 16.6666 29.9777V38.8249C16.7916 38.6666 16.9027 38.5319 16.9833 38.4541C17.7238 37.7494 18.4048 36.9848 19.0194 36.168C19.6722 35.3055 19.4361 34.8847 19.7625 34.111C20.0902 33.336 20.5138 33.2541 21.0736 32.5208C21.6361 31.7847 21.243 32.0097 20.6361 31.9041ZM33.3333 21.8485V13.0791C33.2777 13.0847 33.2388 13.0958 33.1805 13.0999C32.8902 13.1152 32.5111 13.2874 32.0986 13.5444C32.0652 13.5374 32.0347 13.5222 32.0013 13.5152C30.7569 13.2722 30.1791 15.1888 29.1694 15.1152C28.1569 15.0416 26.8083 14.6374 25.9305 15.8291C25.0541 17.0194 24.8513 17.9541 25.9305 17.6263C27.0097 17.2985 27.7527 15.6472 28.2916 16.1138C28.8305 16.5805 28.6944 17.1152 27.4138 17.6485C26.1333 18.1833 24.75 18.7833 24.0083 18.9819C23.2666 19.1805 23.0986 19.7235 23.6027 20.1235C24.1083 20.5235 23.2986 20.7777 22.4555 21.5402C21.6125 22.2999 22.6583 22.2513 23.3666 22.5194C24.075 22.7874 24.6138 22.0708 24.918 21.2249C25.2194 20.3805 26.5263 19.1124 27.0708 19.0805C27.6152 19.0485 27.6152 19.3541 27.5125 19.9166C27.4944 20.0152 27.5138 20.0597 27.5277 20.1083C27.2916 20.8583 27.0972 21.5388 27.0208 21.9222C26.9836 22.1959 26.9711 22.4725 26.9833 22.7485C26.8638 22.7541 26.7291 22.7777 26.6388 22.7499C26.0305 22.5708 24.6472 22.4444 24.2763 22.8097C23.9055 23.1777 23.7041 23.5069 23.2652 23.8138C22.825 24.118 21.0388 25.5138 21.0055 26.7083C20.9708 27.9013 20.9375 29.2499 21.6458 29.0985C22.3541 28.9472 24.075 27.9513 24.6138 27.3097C25.1513 26.6666 25.893 26.5847 26.1305 27.093C26.3666 27.6055 26.1972 27.9944 25.9638 28.9735C25.7263 29.9569 26.1166 30.311 26.493 31.0124C26.8722 31.7124 27.175 32.0888 27.175 32.6638C27.175 33.236 27.7152 33.668 28.5222 32.493C28.804 32.0697 29.0529 31.6253 29.2666 31.1638C29.8347 30.5124 30.3333 29.8819 30.3194 29.6416C30.3016 29.353 30.2905 29.064 30.2861 28.7749L30.4125 28.4694C30.5888 28.0624 30.7472 27.4333 30.9152 26.8652C30.9235 26.8533 30.9328 26.8421 30.943 26.8319C31.2722 26.3638 31.2 26.3416 31.7486 25.7819C32.1152 25.4069 32.1013 25.0708 32.0458 24.8402C32.1916 24.5972 32.2319 24.4513 32 24.5138L31.9777 24.5194C31.975 24.5194 31.9708 24.5458 31.9694 24.5388C31.9375 24.3319 31.6833 24.543 31.2736 24.7444C30.8791 24.7555 30.4875 24.6527 30.3458 24.2333C30.1611 23.6833 29.5097 22.8499 29.4583 22.3777C29.4625 22.3208 29.4652 22.2708 29.4722 22.2055C29.4889 22.1548 29.5228 22.1116 29.568 22.0833C29.616 22.0566 29.6689 22.0401 29.7236 22.0347C29.7805 22.1888 29.8277 22.4222 29.843 22.6791C29.8791 23.3416 30.3902 22.9513 30.3902 23.3708C30.3902 23.7916 31.1263 24.0541 31.3083 24.1319C31.3597 24.1541 31.4388 24.0944 31.5291 23.9958C31.5722 24.011 31.6125 24.0416 31.6583 24.0472C32.0638 24.0902 32.9388 22.6805 33.2097 22.4305C33.3513 22.2985 33.3541 22.0569 33.2555 21.8833L33.3333 21.8485Z" fill="#77B255"/>
<path id="Vector_7" d="M38.3806 28.0846C38.307 28.6957 38.6362 28.3637 39.2223 29.0637C39.8098 29.7693 39.0778 29.611 38.8209 29.5026C38.5639 29.3915 38.307 29.3207 38.0167 28.7832C37.7209 28.2401 38.0167 27.8179 38.0167 27.3568C38.0167 27.3568 38.4556 27.4735 38.3806 28.0846ZM38.8834 26.8332C39.4237 27.0637 39.0417 26.1637 39.2223 25.6651C39.4056 25.1707 39.6612 25.154 39.9931 25.161C40.3209 25.1637 40.5792 24.8957 40.8 24.6207C41.0181 24.3443 41.4223 23.9901 41.3862 23.6026C41.35 23.2151 41.2417 22.9332 41.0917 22.4318C40.9459 21.9318 41.5306 21.9207 41.7889 21.4443C42.0445 20.9679 41.7889 21.4443 42.3737 21.4332C42.9598 21.4221 42.7042 21.3526 42.8125 21.1304C42.9237 20.9096 42.9973 20.6762 42.8875 20.186C42.7792 19.6957 42.3737 20.0471 41.9709 19.9401C41.5695 19.8332 42.1181 19.3499 42.1542 18.8568C42.1903 18.3624 42.7056 18.6276 43.0723 18.6832C43.4375 18.7374 43.5473 19.3554 43.657 19.5124C43.7695 19.6679 44.9 19.0054 45.1959 18.6221C45.4889 18.2401 44.9375 18.2179 45.0862 18.0624C45.2334 17.9082 44.2084 17.5943 43.8014 17.411C43.4 17.2262 42.3737 16.9012 41.9709 16.5096C41.5695 16.1165 40.032 15.9179 39.6264 16.0415C39.2223 16.161 38.9653 15.8429 38.7848 15.4776C38.6028 15.1137 37.832 15.0651 37.6125 14.829C37.3931 14.5929 37.1737 15.0054 36.8778 15.0512C36.5862 15.0999 36.4764 15.111 36.1084 14.761C35.7431 14.411 36.2195 14.2457 35.7084 13.8985C35.2153 13.5679 34.5792 13.6457 33.3334 13.0776V21.8471C33.5514 21.8665 33.7625 21.8971 33.8389 21.9179C34.0209 21.9665 34.4612 22.7137 34.4612 23.0068C34.4612 23.2999 34.6806 24.1568 34.8653 24.6665C35.0473 25.1749 35.4487 25.3693 35.8181 25.8026C36.1848 26.236 36.3653 25.9929 36.3653 25.9929C36.3653 25.9929 36.2195 25.2374 36.2195 24.6526C36.2195 24.0637 36.6584 23.679 36.6584 23.679C36.6584 23.679 37.3528 24.454 37.3917 24.6304C37.4278 24.8082 37.9764 25.5415 38.0153 25.8471C38.0514 26.1512 38.3445 26.6054 38.8834 26.8332ZM41.7889 23.961C42.0445 24.0721 43.1445 24.1985 42.5584 23.4971C41.9709 22.7943 42.4112 23.0818 42.4848 22.4721C42.5584 21.861 42.1181 21.7443 42.1181 21.7443C42.1181 22.2054 41.825 22.6304 42.1181 23.1693C42.4098 23.711 41.5306 23.8499 41.7889 23.961ZM44.5723 31.4207C44.3903 31.1193 43.9875 30.886 43.5473 30.7804C43.1098 30.6749 43.1445 30.1137 42.7056 30.0401C42.2667 29.9637 41.95 29.4999 41.7528 29.329C41.3195 28.9596 41.6056 29.6193 41.7528 30.2999C41.9 30.9776 42.4487 30.6415 42.9598 31.1137C43.4723 31.586 43.5112 31.136 43.9875 31.4318C44.4625 31.7249 44.6473 32.154 45.1042 32.2346C45.5612 32.3165 44.757 31.7221 44.5723 31.4207ZM40.2834 29.4318C40.6473 29.9901 40.5042 29.4915 40.9834 29.4096C41.4598 29.3276 40.5792 28.6304 40.2862 28.2999C39.9931 27.9693 39.7028 27.8818 39.4459 28.3679C39.1542 28.9221 39.9209 28.8735 40.2834 29.4318ZM43.6209 33.0137C43.4362 32.5443 42.9014 32.0235 42.6834 31.7499C42.4625 31.4818 42.1181 31.3165 41.825 31.3624C41.5306 31.4054 41.3487 31.2346 41.2028 30.861C41.0556 30.4915 40.8 30.5374 40.5792 30.5221C40.3612 30.5054 39.4806 30.6874 38.9667 30.8415C38.4556 30.9985 38.2209 31.1915 37.8862 31.4762C37.3556 31.9207 37.65 31.6221 37.8862 32.0651C38.1195 32.5068 37.6264 33.5457 37.5903 34.2082C37.5528 34.8707 38.5292 34.2512 38.8945 34.2624C39.2612 34.279 39.1528 33.9999 39.4445 33.8262C39.7389 33.6526 39.9292 33.6471 40.2487 34.0651C40.5723 34.4887 40.9945 34.9137 40.9945 35.2915C40.9945 35.6665 42.1528 36.6068 42.5931 36.4749C43.032 36.3387 43.2889 35.9082 43.6917 35.5929C44.0959 35.2804 43.95 34.4485 44.0584 33.9707C44.1709 33.4929 43.8014 33.479 43.6209 33.0137Z" fill="#5C913B"/>
</g>
<defs>
<clipPath id="clip0_33_1645">
<rect width="50" height="50" fill="white"/>
</clipPath>
</defs>
</svg>
