<svg width="56" height="56" viewBox="0 0 56 56" fill="none" xmlns="http://www.w3.org/2000/svg">
<g id="gg:menu-round">
<g id="Group">
<path id="Vector" d="M18.6666 16.2937C18.0478 16.2937 17.4543 16.5395 17.0167 16.9771C16.5791 17.4147 16.3333 18.0082 16.3333 18.627C16.3333 19.2459 16.5791 19.8394 17.0167 20.277C17.4543 20.7145 18.0478 20.9604 18.6666 20.9604H37.3333C37.9522 20.9604 38.5456 20.7145 38.9832 20.277C39.4208 19.8394 39.6666 19.2459 39.6666 18.627C39.6666 18.0082 39.4208 17.4147 38.9832 16.9771C38.5456 16.5395 37.9522 16.2937 37.3333 16.2937H18.6666ZM16.3333 28C16.3333 27.3812 16.5791 26.7877 17.0167 26.3501C17.4543 25.9125 18.0478 25.6667 18.6666 25.6667H37.3333C37.9522 25.6667 38.5456 25.9125 38.9832 26.3501C39.4208 26.7877 39.6666 27.3812 39.6666 28C39.6666 28.6189 39.4208 29.2124 38.9832 29.65C38.5456 30.0875 37.9522 30.3334 37.3333 30.3334H18.6666C18.0478 30.3334 17.4543 30.0875 17.0167 29.65C16.5791 29.2124 16.3333 28.6189 16.3333 28ZM18.6666 35.0397C18.0478 35.0397 17.4543 35.2855 17.0167 35.7231C16.5791 36.1607 16.3333 36.7542 16.3333 37.373C16.3333 37.9919 16.5791 38.5854 17.0167 39.0229C17.4543 39.4605 18.0478 39.7064 18.6666 39.7064H37.3333C37.9522 39.7064 38.5456 39.4605 38.9832 39.0229C39.4208 38.5854 39.6666 37.9919 39.6666 37.373C39.6666 36.7542 39.4208 36.1607 38.9832 35.7231C38.5456 35.2855 37.9522 35.0397 37.3333 35.0397H18.6666Z" fill="#FFBF00"/>
</g>
</g>
</svg>
