<svg width="50" height="35" viewBox="0 0 50 35" fill="none" xmlns="http://www.w3.org/2000/svg">
<g id="youtube" clip-path="url(#clip0_33_1636)">
<path id="Vector" d="M48.8892 5.45903C48.6025 4.40389 48.0432 3.44195 47.2671 2.669C46.4909 1.89605 45.525 1.33906 44.4654 1.0535C40.5864 0 24.9746 0 24.9746 0C24.9746 0 9.36208 0.0318888 5.48306 1.08539C4.42348 1.37097 3.45752 1.92799 2.68137 2.70097C1.90521 3.47395 1.34594 4.43593 1.05926 5.49111C-0.114053 12.3546 -0.569203 22.813 1.09148 29.4019C1.37819 30.4571 1.93747 31.419 2.71363 32.192C3.48978 32.9649 4.45572 33.5219 5.51528 33.8075C9.3943 34.861 25.0065 34.861 25.0065 34.861C25.0065 34.861 40.6184 34.861 44.4973 33.8075C45.5569 33.5219 46.5228 32.965 47.299 32.192C48.0752 31.4191 48.6345 30.4571 48.9213 29.4019C50.1588 22.5287 50.5401 12.0768 48.8892 5.45903Z" fill="#FF0000"/>
<path id="Vector_2" d="M20.0054 24.9008L32.9566 17.4306L20.0054 9.96045V24.9008Z" fill="white"/>
</g>
<defs>
<clipPath id="clip0_33_1636">
<rect width="50" height="35" fill="white"/>
</clipPath>
</defs>
</svg>
